<svg xmlns="http://www.w3.org/2000/svg" viewBox="0 0 900 700" fill="none">
  <!-- Coordinate Grid Segment -->
  <rect x="80" y="80" width="360" height="240" fill="rgba(255,255,255,0.01)" stroke="rgba(255,255,255,0.1)" stroke-width="1"/>
  <line x1="120" y1="80" x2="120" y2="320" stroke="rgba(255,255,255,0.025)" stroke-width="1"/>
  <text x="120" y="334" fill="rgba(255,255,255,0.12)" font-family="ui-monospace, monospace" font-size="7.5" text-anchor="middle">+1.0</text>
  <line x1="160" y1="80" x2="160" y2="320" stroke="rgba(255,255,255,0.025)" stroke-width="1"/>
  <text x="160" y="334" fill="rgba(255,255,255,0.12)" font-family="ui-monospace, monospace" font-size="7.5" text-anchor="middle">+2.0</text>
  <line x1="200" y1="80" x2="200" y2="320" stroke="rgba(255,255,255,0.025)" stroke-width="1"/>
  <text x="200" y="334" fill="rgba(255,255,255,0.12)" font-family="ui-monospace, monospace" font-size="7.5" text-anchor="middle">+3.0</text>
  <line x1="240" y1="80" x2="240" y2="320" stroke="rgba(255,255,255,0.025)" stroke-width="1"/>
  <text x="240" y="334" fill="rgba(255,255,255,0.12)" font-family="ui-monospace, monospace" font-size="7.5" text-anchor="middle">+4.0</text>
  <line x1="280" y1="80" x2="280" y2="320" stroke="rgba(255,255,255,0.025)" stroke-width="1"/>
  <text x="280" y="334" fill="rgba(255,255,255,0.12)" font-family="ui-monospace, monospace" font-size="7.5" text-anchor="middle">+5.0</text>
  <line x1="320" y1="80" x2="320" y2="320" stroke="rgba(255,255,255,0.025)" stroke-width="1"/>
  <text x="320" y="334" fill="rgba(255,255,255,0.12)" font-family="ui-monospace, monospace" font-size="7.5" text-anchor="middle">+6.0</text>
  <line x1="360" y1="80" x2="360" y2="320" stroke="rgba(255,255,255,0.025)" stroke-width="1"/>
  <text x="360" y="334" fill="rgba(255,255,255,0.12)" font-family="ui-monospace, monospace" font-size="7.5" text-anchor="middle">+7.0</text>
  <line x1="400" y1="80" x2="400" y2="320" stroke="rgba(255,255,255,0.025)" stroke-width="1"/>
  <text x="400" y="334" fill="rgba(255,255,255,0.12)" font-family="ui-monospace, monospace" font-size="7.5" text-anchor="middle">+8.0</text>
  <line x1="80" y1="120" x2="440" y2="120" stroke="rgba(255,255,255,0.025)" stroke-width="1"/>
  <text x="72" y="123" fill="rgba(255,255,255,0.12)" font-family="ui-monospace, monospace" font-size="7.5" text-anchor="end">Y1</text>
  <line x1="80" y1="160" x2="440" y2="160" stroke="rgba(255,255,255,0.025)" stroke-width="1"/>
  <text x="72" y="163" fill="rgba(255,255,255,0.12)" font-family="ui-monospace, monospace" font-size="7.5" text-anchor="end">Y2</text>
  <line x1="80" y1="200" x2="440" y2="200" stroke="rgba(255,255,255,0.025)" stroke-width="1"/>
  <text x="72" y="203" fill="rgba(255,255,255,0.12)" font-family="ui-monospace, monospace" font-size="7.5" text-anchor="end">Y3</text>
  <line x1="80" y1="240" x2="440" y2="240" stroke="rgba(255,255,255,0.025)" stroke-width="1"/>
  <text x="72" y="243" fill="rgba(255,255,255,0.12)" font-family="ui-monospace, monospace" font-size="7.5" text-anchor="end">Y4</text>
  <line x1="80" y1="280" x2="440" y2="280" stroke="rgba(255,255,255,0.025)" stroke-width="1"/>
  <text x="72" y="283" fill="rgba(255,255,255,0.12)" font-family="ui-monospace, monospace" font-size="7.5" text-anchor="end">Y5</text>
  <!-- Crosshair Precision Target System -->
  <line x1="480" y1="200" x2="720" y2="200" stroke="rgba(255,255,255,0.12)" stroke-width="1.2"/>
  <line x1="600" y1="80" x2="600" y2="320" stroke="rgba(255,255,255,0.12)" stroke-width="1.2"/>
  <circle cx="600" cy="200" r="35" stroke="rgba(255,255,255,0.16)" stroke-width="1.2" fill="none"/>
  <circle cx="600" cy="200" r="70" stroke="rgba(255,255,255,0.08)" stroke-width="1" stroke-dasharray="4 6" fill="none"/>
  <circle cx="600" cy="200" r="105" stroke="rgba(255,255,255,0.05)" stroke-width="0.8" fill="none"/>
  <circle cx="600" cy="200" r="3" fill="rgba(255,255,255,0.3)"/>
  <line x1="620" y1="196" x2="620" y2="204" stroke="rgba(255,255,255,0.15)" stroke-width="1"/>
  <line x1="580" y1="196" x2="580" y2="204" stroke="rgba(255,255,255,0.15)" stroke-width="1"/>
  <line x1="596" y1="220" x2="604" y2="220" stroke="rgba(255,255,255,0.15)" stroke-width="1"/>
  <line x1="596" y1="180" x2="604" y2="180" stroke="rgba(255,255,255,0.15)" stroke-width="1"/>
  <line x1="635" y1="196" x2="635" y2="204" stroke="rgba(255,255,255,0.15)" stroke-width="1"/>
  <line x1="565" y1="196" x2="565" y2="204" stroke="rgba(255,255,255,0.15)" stroke-width="1"/>
  <line x1="596" y1="235" x2="604" y2="235" stroke="rgba(255,255,255,0.15)" stroke-width="1"/>
  <line x1="596" y1="165" x2="604" y2="165" stroke="rgba(255,255,255,0.15)" stroke-width="1"/>
  <line x1="650" y1="196" x2="650" y2="204" stroke="rgba(255,255,255,0.15)" stroke-width="1"/>
  <line x1="550" y1="196" x2="550" y2="204" stroke="rgba(255,255,255,0.15)" stroke-width="1"/>
  <line x1="596" y1="250" x2="604" y2="250" stroke="rgba(255,255,255,0.15)" stroke-width="1"/>
  <line x1="596" y1="150" x2="604" y2="150" stroke="rgba(255,255,255,0.15)" stroke-width="1"/>
  <line x1="665" y1="196" x2="665" y2="204" stroke="rgba(255,255,255,0.15)" stroke-width="1"/>
  <line x1="535" y1="196" x2="535" y2="204" stroke="rgba(255,255,255,0.15)" stroke-width="1"/>
  <line x1="596" y1="265" x2="604" y2="265" stroke="rgba(255,255,255,0.15)" stroke-width="1"/>
  <line x1="596" y1="135" x2="604" y2="135" stroke="rgba(255,255,255,0.15)" stroke-width="1"/>
  <line x1="680" y1="196" x2="680" y2="204" stroke="rgba(255,255,255,0.15)" stroke-width="1"/>
  <line x1="520" y1="196" x2="520" y2="204" stroke="rgba(255,255,255,0.15)" stroke-width="1"/>
  <line x1="596" y1="280" x2="604" y2="280" stroke="rgba(255,255,255,0.15)" stroke-width="1"/>
  <line x1="596" y1="120" x2="604" y2="120" stroke="rgba(255,255,255,0.15)" stroke-width="1"/>
  <line x1="695" y1="196" x2="695" y2="204" stroke="rgba(255,255,255,0.15)" stroke-width="1"/>
  <line x1="505" y1="196" x2="505" y2="204" stroke="rgba(255,255,255,0.15)" stroke-width="1"/>
  <line x1="596" y1="295" x2="604" y2="295" stroke="rgba(255,255,255,0.15)" stroke-width="1"/>
  <line x1="596" y1="105" x2="604" y2="105" stroke="rgba(255,255,255,0.15)" stroke-width="1"/>
  <!-- Dimension Measurement Line -->
  <line x1="80" y1="380" x2="440" y2="380" stroke="rgba(255,255,255,0.14)" stroke-width="1"/>
  <line x1="80" y1="372" x2="80" y2="388" stroke="rgba(255,255,255,0.18)" stroke-width="1.5"/>
  <line x1="440" y1="372" x2="440" y2="388" stroke="rgba(255,255,255,0.18)" stroke-width="1.5"/>
  <text x="260.0" y="372" fill="rgba(255,255,255,0.22)" font-family="ui-monospace, monospace" font-size="9" text-anchor="middle" letter-spacing="1.5">|◄── 420.00 mm (MODULE_BASE) ──►|</text>
  <!-- Schematic Node Graph -->
  <path d="M 520 480 L 640 440 L 740 520 L 660 600 L 540 580 Z" stroke="rgba(255,255,255,0.08)" stroke-width="1.2" fill="rgba(255,255,255,0.015)"/>
  <line x1="520" y1="480" x2="740" y2="520" stroke="rgba(255,255,255,0.04)" stroke-width="1" stroke-dasharray="3 4"/>
  <line x1="640" y1="440" x2="660" y2="600" stroke="rgba(255,255,255,0.04)" stroke-width="1" stroke-dasharray="3 4"/>
  <circle cx="520" cy="480" r="4" fill="none" stroke="rgba(255,255,255,0.25)" stroke-width="1.2"/>
  <circle cx="520" cy="480" r="1.8" fill="rgba(255,255,255,0.3)"/>
  <text x="528" y="484" fill="rgba(255,255,255,0.18)" font-family="ui-monospace, monospace" font-size="8">NODE.01</text>
  <circle cx="640" cy="440" r="4" fill="none" stroke="rgba(255,255,255,0.25)" stroke-width="1.2"/>
  <circle cx="640" cy="440" r="1.8" fill="rgba(255,255,255,0.3)"/>
  <text x="648" y="444" fill="rgba(255,255,255,0.18)" font-family="ui-monospace, monospace" font-size="8">NODE.02</text>
  <circle cx="740" cy="520" r="4" fill="none" stroke="rgba(255,255,255,0.25)" stroke-width="1.2"/>
  <circle cx="740" cy="520" r="1.8" fill="rgba(255,255,255,0.3)"/>
  <text x="748" y="524" fill="rgba(255,255,255,0.18)" font-family="ui-monospace, monospace" font-size="8">NODE.03</text>
  <circle cx="660" cy="600" r="4" fill="none" stroke="rgba(255,255,255,0.25)" stroke-width="1.2"/>
  <circle cx="660" cy="600" r="1.8" fill="rgba(255,255,255,0.3)"/>
  <text x="668" y="604" fill="rgba(255,255,255,0.18)" font-family="ui-monospace, monospace" font-size="8">NODE.04</text>
  <circle cx="540" cy="580" r="4" fill="none" stroke="rgba(255,255,255,0.25)" stroke-width="1.2"/>
  <circle cx="540" cy="580" r="1.8" fill="rgba(255,255,255,0.3)"/>
  <text x="548" y="584" fill="rgba(255,255,255,0.18)" font-family="ui-monospace, monospace" font-size="8">NODE.05</text>
  <!-- Technical Telemetry Callout Box -->
  <rect x="80" y="440" width="340" height="150" fill="rgba(255,255,255,0.02)" stroke="rgba(255,255,255,0.12)" stroke-width="1" rx="2"/>
  <line x1="80" y1="468" x2="420" y2="468" stroke="rgba(255,255,255,0.1)" stroke-width="1"/>
  <text x="94" y="459" fill="rgba(255,255,255,0.25)" font-family="ui-monospace, monospace" font-size="9" letter-spacing="1">SYS.TELEMETRY // SPECIFICATION</text>
  <text x="94" y="490" fill="rgba(255,255,255,0.16)" font-family="ui-monospace, monospace" font-size="8" letter-spacing="0.8">SUBSYSTEM: CORE.INVENTORY.VAULT</text>
  <text x="94" y="508" fill="rgba(255,255,255,0.16)" font-family="ui-monospace, monospace" font-size="8" letter-spacing="0.8">RETENTION: 7-DAY CIRCULAR LEDGER</text>
  <text x="94" y="526" fill="rgba(255,255,255,0.16)" font-family="ui-monospace, monospace" font-size="8" letter-spacing="0.8">STATUS: NOMINAL (0x01) // SYNCED</text>
  <text x="94" y="544" fill="rgba(255,255,255,0.16)" font-family="ui-monospace, monospace" font-size="8" letter-spacing="0.8">COORDINATES: 28.514° N, 77.371° E</text>
  <text x="94" y="562" fill="rgba(255,255,255,0.16)" font-family="ui-monospace, monospace" font-size="8" letter-spacing="0.8">BUILD: CICR-ROBOTICS // REV.2.13.0</text>
  <!-- Structural Corner Brackets -->
  <path d="M 40 56 V 40 H 56" stroke="rgba(255,255,255,0.2)" stroke-width="1.5" fill="none"/>
  <path d="M 860 56 V 40 H 844" stroke="rgba(255,255,255,0.2)" stroke-width="1.5" fill="none"/>
  <path d="M 40 644 V 660 H 56" stroke="rgba(255,255,255,0.2)" stroke-width="1.5" fill="none"/>
  <path d="M 860 644 V 660 H 844" stroke="rgba(255,255,255,0.2)" stroke-width="1.5" fill="none"/>
</svg>